<svg width="16" height="16" viewBox="0 0 16 16" fill="none" xmlns="http://www.w3.org/2000/svg">
    <path d="M8.00357 3.89325C5.73214 3.89325 3.89999 5.72539 3.89999 7.99682C3.89999 10.2682 5.73214 12.1004 8.00357 12.1004C10.275 12.1004 12.1071 10.2682 12.1071 7.99682C12.1071 5.72539 10.275 3.89325 8.00357 3.89325ZM8.00357 10.6647C6.53571 10.6647 5.33571 9.46825 5.33571 7.99682C5.33571 6.52539 6.53214 5.32896 8.00357 5.32896C9.47499 5.32896 10.6714 6.52539 10.6714 7.99682C10.6714 9.46825 9.47142 10.6647 8.00357 10.6647ZM13.2321 3.72539C13.2321 4.25753 12.8036 4.68253 12.275 4.68253C11.7429 4.68253 11.3179 4.25396 11.3179 3.72539C11.3179 3.19682 11.7464 2.76825 12.275 2.76825C12.8036 2.76825 13.2321 3.19682 13.2321 3.72539ZM15.95 4.69682C15.8893 3.41468 15.5964 2.27896 14.6571 1.34325C13.7214 0.407533 12.5857 0.114676 11.3036 0.0503906C9.98214 -0.0246094 6.02142 -0.0246094 4.69999 0.0503906C3.42142 0.111105 2.28571 0.403962 1.34642 1.33968C0.407136 2.27539 0.11785 3.41111 0.0535645 4.69325C-0.0214355 6.01468 -0.0214355 9.97539 0.0535645 11.2968C0.114279 12.579 0.407136 13.7147 1.34642 14.6504C2.28571 15.5861 3.41785 15.879 4.69999 15.9432C6.02142 16.0182 9.98214 16.0182 11.3036 15.9432C12.5857 15.8825 13.7214 15.5897 14.6571 14.6504C15.5929 13.7147 15.8857 12.579 15.95 11.2968C16.025 9.97539 16.025 6.01825 15.95 4.69682ZM14.2429 12.7147C13.9643 13.4147 13.425 13.954 12.7214 14.2361C11.6679 14.654 9.16785 14.5575 8.00357 14.5575C6.83928 14.5575 4.33571 14.6504 3.28571 14.2361C2.58571 13.9575 2.04642 13.4182 1.76428 12.7147C1.34642 11.6611 1.44285 9.16111 1.44285 7.99682C1.44285 6.83253 1.34999 4.32896 1.76428 3.27896C2.04285 2.57896 2.58214 2.03968 3.28571 1.75753C4.33928 1.33968 6.83928 1.43611 8.00357 1.43611C9.16785 1.43611 11.6714 1.34325 12.7214 1.75753C13.4214 2.03611 13.9607 2.57539 14.2429 3.27896C14.6607 4.33253 14.5643 6.83253 14.5643 7.99682C14.5643 9.16111 14.6607 11.6647 14.2429 12.7147Z" fill="#FD8B37"/>
</svg>
